<?xml version="1.0" encoding="UTF-8"?>
<svg width="113px" height="41px" viewBox="0 0 113 41" version="1.1" xmlns="http://www.w3.org/2000/svg" xmlns:xlink="http://www.w3.org/1999/xlink">
    <!-- Generator: Sketch 52.3 (67297) - http://www.bohemiancoding.com/sketch -->
    <title>Group 9</title>
    <desc>Created with Sketch.</desc>
    <defs>
        <polygon id="path-1" points="0 0 32 0 32 41 0 41"></polygon>
        <polygon id="path-3" points="0 0 32 0 32 41 0 41"></polygon>
    </defs>
    <g id="Page-1" stroke="none" stroke-width="1" fill="none" fill-rule="evenodd">
        <g id="Group-9">
            <path d="M58.8675,10.9564 C57.7645,10.9924 56.8965,11.9154 56.9325,13.0204 C56.9545,13.7014 57.3215,14.3244 57.9065,14.6734 C59.9085,15.9084 61.2445,18.0954 61.2445,20.6284 C61.2445,23.1614 59.9085,25.3484 57.9065,26.5844 C56.9665,27.1634 56.6745,28.3954 57.2545,29.3364 C57.8345,30.2764 59.0665,30.5684 60.0065,29.9894 C60.0075,29.9884 60.0085,29.9884 60.0085,29.9884 C63.1435,28.0524 65.2445,24.5754 65.2445,20.6284 C65.2445,16.6814 63.1435,13.2044 60.0085,11.2694 C59.6685,11.0524 59.2705,10.9434 58.8675,10.9564" id="Path" fill="#B8E986"></path>
            <path d="M49.5605,10.9564 C49.1785,10.9554 48.8035,11.0644 48.4805,11.2694 C45.3455,13.2044 43.2445,16.6814 43.2445,20.6284 C43.2445,24.5754 45.3455,28.0524 48.4805,29.9884 C49.4205,30.5684 50.6535,30.2774 51.2345,29.3374 C51.8155,28.3984 51.5235,27.1654 50.5845,26.5854 C50.5835,26.5844 50.5835,26.5844 50.5825,26.5844 C48.5805,25.3484 47.2445,23.1614 47.2445,20.6284 C47.2445,18.0954 48.5805,15.9084 50.5825,14.6734 C51.5305,14.1064 51.8395,12.8784 51.2725,11.9304 C50.9125,11.3284 50.2635,10.9584 49.5605,10.9564" id="Path" fill="#B8E986"></path>
            <path d="M63.6335,5.7654 C62.5295,5.8184 61.6795,6.7564 61.7315,7.8594 C61.7615,8.4684 62.0665,9.0304 62.5605,9.3864 C66.0075,11.9414 68.2445,16.0054 68.2445,20.6284 C68.2445,25.8254 65.4205,30.3244 61.2325,32.7464 C60.2765,33.2984 59.9505,34.5224 60.5035,35.4794 C61.0565,36.4354 62.2805,36.7614 63.2365,36.2094 C68.6155,33.0984 72.2445,27.2784 72.2445,20.6284 C72.2445,14.7094 69.3595,9.4484 64.9415,6.1734 C64.5675,5.8874 64.1035,5.7434 63.6335,5.7654" id="Path" fill="#7ED321"></path>
            <path d="M44.7955,5.7634 C44.3455,5.7554 43.9055,5.8994 43.5475,6.1734 C39.1295,9.4484 36.2445,14.7094 36.2445,20.6284 C36.2445,27.2784 39.8735,33.0984 45.2525,36.2094 C46.2085,36.7614 47.4325,36.4354 47.9855,35.4794 C48.5395,34.5224 48.2125,33.2984 47.2565,32.7464 C43.0685,30.3244 40.2445,25.8254 40.2445,20.6284 C40.2445,16.0054 42.4825,11.9414 45.9285,9.3864 C46.8245,8.7404 47.0285,7.4904 46.3825,6.5944 C46.0145,6.0824 45.4265,5.7744 44.7955,5.7634" id="Path" fill="#7ED321"></path>
            <path d="M66.5305,2.6374 C66.5395,3.2474 66.8245,3.8194 67.3075,4.1924 C72.1435,8.0434 75.2445,13.9574 75.2445,20.6284 C75.2445,27.2994 72.1435,33.2134 67.3075,37.0644 C66.4345,37.7424 66.2775,38.9994 66.9565,39.8714 C67.6345,40.7434 68.8905,40.9004 69.7635,40.2214 C69.7755,40.2114 69.7875,40.2034 69.7995,40.1934 C75.5505,35.6154 79.2445,28.5424 79.2445,20.6284 C79.2445,12.7154 75.5505,5.6424 69.7995,1.0644 C69.4345,0.7654 68.9755,0.6044 68.5045,0.6104 C67.3995,0.6254 66.5155,1.5334 66.5305,2.6374 Z" id="Path" fill="#417505"></path>
            <path d="M39.9245,0.6104 C39.4735,0.6184 39.0385,0.7784 38.6895,1.0644 C32.9385,5.6424 29.2445,12.7154 29.2445,20.6284 C29.2445,28.5424 32.9385,35.6154 38.6895,40.1934 C39.5465,40.8914 40.8065,40.7634 41.5045,39.9074 C42.2025,39.0504 42.0745,37.7914 41.2185,37.0924 C41.2065,37.0834 41.1945,37.0734 41.1815,37.0644 C36.3455,33.2134 33.2445,27.2994 33.2445,20.6284 C33.2445,13.9574 36.3455,8.0434 41.1815,4.1924 C42.0565,3.5174 42.2165,2.2604 41.5405,1.3874 C41.1545,0.8874 40.5555,0.6004 39.9245,0.6104" id="Path" fill="#417505"></path>
            <g id="Group-5">
                <mask id="mask-2" fill="white">
                    <use xlink:href="#path-1"></use>
                </mask>
                <g id="Clip-4"></g>
                <path d="M1.72881038,41 C1.24658434,41 0.837392528,40.8471567 0.502235423,40.5414701 C0.167078318,40.2357835 0,39.8636057 0,39.4232098 L0,1.57679023 C0,1.13725779 0.167078318,0.764216512 0.502235423,0.458529907 C0.837392528,0.152843302 1.24658434,0 1.72881038,0 L30.2711896,0 C30.7324058,0 31.1405972,0.152843302 31.4967641,0.458529907 C31.8319212,0.764216512 32,1.13725779 32,1.57679023 C32,2.01632266 31.8319212,2.38936394 31.4967641,2.69505055 C31.1405972,3.00073715 30.7324058,3.15358045 30.2711896,3.15358045 L3.45762076,3.15358045 L3.45762076,18.9232098 L23.3559481,18.9232098 C23.8161638,18.9232098 24.2153509,19.0760531 24.5505081,19.3817397 C24.906675,19.6874263 25.0847585,20.0604676 25.0847585,20.5 C25.0847585,20.9395324 24.906675,21.3125737 24.5505081,21.6182603 C24.2153509,21.9239469 23.8161638,22.0767902 23.3559481,22.0767902 L3.45762076,22.0767902 L3.45762076,37.8464195 L30.2711896,37.8464195 C30.7324058,37.8464195 31.1405972,37.9992628 31.4967641,38.3049495 C31.8319212,38.6106361 32,38.9836773 32,39.4232098 C32,39.8636057 31.8319212,40.2357835 31.4967641,40.5414701 C31.1405972,40.8471567 30.7324058,41 30.2711896,41 L1.72881038,41 Z" id="Fill-3" fill="#282828" mask="url(#mask-2)"></path>
            </g>
            <g id="Group-8" transform="translate(81.000000, 0.000000)">
                <mask id="mask-4" fill="white">
                    <use xlink:href="#path-3"></use>
                </mask>
                <g id="Clip-7"></g>
                <path d="M20.0619256,37.8464195 C22.418553,37.8464195 24.433726,37.0727043 26.1084315,35.5244103 C27.7624129,33.9951137 28.5894036,32.1411331 28.5894036,29.9616049 C28.5894036,27.7829402 27.7624129,25.9289596 26.1084315,24.399663 C24.433726,22.851369 22.418553,22.0767902 20.0619256,22.0767902 L11.9380744,22.0767902 C8.65083575,22.0767902 5.84025165,20.9973884 3.50434836,18.8368576 C1.16745821,16.6771904 0,14.0779907 0,11.0383951 C0,7.99966302 1.16745821,5.39959983 3.50434836,3.2399326 C5.84025165,1.08026537 8.65083575,0 11.9380744,0 L20.0619256,0 C23.3689015,0 26.1804725,1.08026537 28.4956516,3.2399326 C30.8315549,5.39959983 32,7.99966302 32,11.0383951 C32,11.4779275 31.8342071,11.8509688 31.5036082,12.1566554 C31.1730093,12.462342 30.7693826,12.6151853 30.2937149,12.6151853 C29.8387714,12.6151853 29.4361315,12.462342 29.0848085,12.1566554 C28.7542096,11.8509688 28.5894036,11.4779275 28.5894036,11.0383951 C28.5894036,8.85973041 27.7624129,6.99538753 26.1084315,5.44709351 C24.433726,3.91866049 22.418553,3.15358045 20.0619256,3.15358045 L11.9380744,3.15358045 C9.58144699,3.15358045 7.5761426,3.91866049 5.92314809,5.44709351 C4.24844261,6.99538753 3.4115833,8.85973041 3.4115833,11.0383951 C3.4115833,13.2179233 4.24844261,15.071904 5.92314809,16.600337 C7.5761426,18.148631 9.58144699,18.9232098 11.9380744,18.9232098 L20.0619256,18.9232098 C23.3689015,18.9232098 26.1804725,20.0034751 28.4956516,22.1631424 C30.8315549,24.3236731 32,26.9228728 32,29.9616049 C32,33.0012005 30.8315549,35.6004002 28.4956516,37.7600674 C26.1804725,39.9205981 23.3689015,41 20.0619256,41 L11.9380744,41 C8.65083575,41 5.84025165,39.9205981 3.50434836,37.7600674 C1.16745821,35.6004002 0,33.0012005 0,29.9616049 C0,29.5220725 0.165792882,29.1498947 0.496391784,28.8433446 C0.826990686,28.5385215 1.22963054,28.3848147 1.70529822,28.3848147 C2.18096589,28.3848147 2.58360575,28.5385215 2.91519151,28.8433446 C3.24579042,29.1498947 3.4115833,29.5220725 3.4115833,29.9616049 C3.4115833,32.1411331 4.24844261,33.9951137 5.92314809,35.5244103 C7.5761426,37.0727043 9.58144699,37.8464195 11.9380744,37.8464195 L20.0619256,37.8464195 Z" id="Fill-6" fill="#282828" mask="url(#mask-4)"></path>
            </g>
        </g>
    </g>
</svg>